<mxfile host="app.diagrams.net" modified="2024-02-26T09:53:24.926Z" agent="Mozilla/5.0 (X11; Ubuntu; Linux x86_64; rv:123.0) Gecko/20100101 Firefox/123.0" etag="M1sNuW1xP2jIe9a8w82b" version="23.1.5" type="device">
  <diagram name="Page-1" id="akTtQobwVc78FqHb_rhX">
    <mxGraphModel dx="1444" dy="791" grid="1" gridSize="10" guides="1" tooltips="1" connect="1" arrows="1" fold="1" page="1" pageScale="1" pageWidth="1169" pageHeight="827" math="0" shadow="0">
      <root>
        <mxCell id="0" />
        <mxCell id="1" parent="0" />
        <mxCell id="Nsw6nWcCVLnFSh3HA_mB-1" value="Client Web" style="whiteSpace=wrap;html=1;aspect=fixed;" vertex="1" parent="1">
          <mxGeometry x="130" y="100" width="80" height="80" as="geometry" />
        </mxCell>
        <mxCell id="Nsw6nWcCVLnFSh3HA_mB-2" value="Serveur PHP" style="rounded=0;whiteSpace=wrap;html=1;" vertex="1" parent="1">
          <mxGeometry x="524.5" y="60" width="120" height="60" as="geometry" />
        </mxCell>
        <mxCell id="Nsw6nWcCVLnFSh3HA_mB-4" value="Api Platform" style="rounded=0;whiteSpace=wrap;html=1;" vertex="1" parent="1">
          <mxGeometry x="524.5" y="180" width="120" height="60" as="geometry" />
        </mxCell>
        <mxCell id="Nsw6nWcCVLnFSh3HA_mB-5" value="Symfony" style="rounded=0;whiteSpace=wrap;html=1;" vertex="1" parent="1">
          <mxGeometry x="524.5" y="120" width="120" height="60" as="geometry" />
        </mxCell>
        <mxCell id="Nsw6nWcCVLnFSh3HA_mB-6" value="MariaDB" style="shape=cylinder3;whiteSpace=wrap;html=1;boundedLbl=1;backgroundOutline=1;size=15;" vertex="1" parent="1">
          <mxGeometry x="950" y="90" width="60" height="80" as="geometry" />
        </mxCell>
        <mxCell id="Nsw6nWcCVLnFSh3HA_mB-7" value="" style="shape=flexArrow;endArrow=classic;startArrow=classic;html=1;rounded=0;" edge="1" parent="1">
          <mxGeometry width="100" height="100" relative="1" as="geometry">
            <mxPoint x="250" y="130" as="sourcePoint" />
            <mxPoint x="490" y="130" as="targetPoint" />
          </mxGeometry>
        </mxCell>
        <mxCell id="Nsw6nWcCVLnFSh3HA_mB-8" value="" style="shape=flexArrow;endArrow=classic;startArrow=classic;html=1;rounded=0;" edge="1" parent="1">
          <mxGeometry width="100" height="100" relative="1" as="geometry">
            <mxPoint x="690" y="139.09" as="sourcePoint" />
            <mxPoint x="930" y="139.09" as="targetPoint" />
          </mxGeometry>
        </mxCell>
        <mxCell id="Nsw6nWcCVLnFSh3HA_mB-9" value="Client Web" style="whiteSpace=wrap;html=1;aspect=fixed;" vertex="1" parent="1">
          <mxGeometry x="130" y="260" width="80" height="80" as="geometry" />
        </mxCell>
        <mxCell id="Nsw6nWcCVLnFSh3HA_mB-10" value="" style="shape=flexArrow;endArrow=classic;startArrow=classic;html=1;rounded=0;" edge="1" parent="1">
          <mxGeometry width="100" height="100" relative="1" as="geometry">
            <mxPoint x="230" y="320" as="sourcePoint" />
            <mxPoint x="500" y="209.09" as="targetPoint" />
          </mxGeometry>
        </mxCell>
        <mxCell id="Nsw6nWcCVLnFSh3HA_mB-12" value="App mobile" style="rounded=0;whiteSpace=wrap;html=1;" vertex="1" parent="1">
          <mxGeometry x="130" y="470" width="120" height="230" as="geometry" />
        </mxCell>
        <mxCell id="Nsw6nWcCVLnFSh3HA_mB-13" value="" style="shape=flexArrow;endArrow=classic;startArrow=classic;html=1;rounded=0;" edge="1" parent="1">
          <mxGeometry width="100" height="100" relative="1" as="geometry">
            <mxPoint x="280" y="590" as="sourcePoint" />
            <mxPoint x="520" y="590" as="targetPoint" />
          </mxGeometry>
        </mxCell>
        <mxCell id="Nsw6nWcCVLnFSh3HA_mB-14" value="Node" style="rounded=0;whiteSpace=wrap;html=1;" vertex="1" parent="1">
          <mxGeometry x="550" y="480" width="120" height="60" as="geometry" />
        </mxCell>
        <mxCell id="Nsw6nWcCVLnFSh3HA_mB-15" value="+ api" style="rounded=0;whiteSpace=wrap;html=1;" vertex="1" parent="1">
          <mxGeometry x="550" y="600" width="120" height="60" as="geometry" />
        </mxCell>
        <mxCell id="Nsw6nWcCVLnFSh3HA_mB-16" value="Express" style="rounded=0;whiteSpace=wrap;html=1;" vertex="1" parent="1">
          <mxGeometry x="550" y="540" width="120" height="60" as="geometry" />
        </mxCell>
        <mxCell id="Nsw6nWcCVLnFSh3HA_mB-17" value="MongoDB" style="shape=cylinder3;whiteSpace=wrap;html=1;boundedLbl=1;backgroundOutline=1;size=15;" vertex="1" parent="1">
          <mxGeometry x="950" y="530" width="60" height="80" as="geometry" />
        </mxCell>
        <mxCell id="Nsw6nWcCVLnFSh3HA_mB-18" value="" style="shape=flexArrow;endArrow=classic;startArrow=classic;html=1;rounded=0;" edge="1" parent="1">
          <mxGeometry width="100" height="100" relative="1" as="geometry">
            <mxPoint x="700" y="584.09" as="sourcePoint" />
            <mxPoint x="940" y="584.09" as="targetPoint" />
          </mxGeometry>
        </mxCell>
        <mxCell id="Nsw6nWcCVLnFSh3HA_mB-19" value="nextjs" style="rounded=0;whiteSpace=wrap;html=1;" vertex="1" parent="1">
          <mxGeometry x="550" y="700" width="120" height="60" as="geometry" />
        </mxCell>
        <mxCell id="Nsw6nWcCVLnFSh3HA_mB-20" value="" style="rounded=0;whiteSpace=wrap;html=1;" vertex="1" parent="1">
          <mxGeometry x="644.5" y="120" width="30" height="60" as="geometry" />
        </mxCell>
        <mxCell id="Nsw6nWcCVLnFSh3HA_mB-21" value="" style="rounded=0;whiteSpace=wrap;html=1;" vertex="1" parent="1">
          <mxGeometry x="670" y="540" width="30" height="60" as="geometry" />
        </mxCell>
      </root>
    </mxGraphModel>
  </diagram>
</mxfile>
